<?xml version="1.0" encoding="UTF-8"?>
<svg width="256" height="256" version="1.1" viewBox="0 0 67.733 67.733" xmlns="http://www.w3.org/2000/svg">
 <g transform="matrix(1.1466 0 0 1.1466 -.038426 -1.032)">
  <g transform="matrix(4 0 0 4 -.10054 -2.6999)" stroke-linecap="round" stroke-linejoin="round">
   <g stroke-width="1.7442">
    <path d="m1.3417 0.89998h12.151c0.72473 0 1.3082 0.58345 1.3082 1.3082v12.151c0 0.72473-0.58345 1.3082-1.3082 1.3082h-12.151c-0.72473 0-1.3082-0.58345-1.3082-1.3082v-12.151c0-0.72473 0.58345-1.3082 1.3082-1.3082z" fill="#7c7287"/>
    <rect x=".90563" y="1.7721" width="9.5933" height=".87212" rx=".26351" ry=".25357" fill="#96E8BC"/>
    <rect x=".90563" y="3.5163" width="7.849" height=".87212" rx=".26351" ry=".25357" fill="#C9FFE2"/>
    <rect x=".90563" y="5.2606" width="7.849" height=".87212" rx=".26351" ry=".25357" fill="#96E8BC"/>
   </g>
   <g fill="#f3c178" stroke-width="1.7442">
    <rect x=".90563" y="5.2606" width="3.4885" height=".87212" rx=".26351" ry=".25357"/>
    <rect x=".90563" y="3.5163" width="3.4885" height=".87212" rx=".26351" ry=".25357"/>
    <rect x=".90563" y="1.7721" width="3.4885" height=".87212" rx=".26351" ry=".25357"/>
   </g>
   <g stroke-width="1.7442">
    <rect x=".90563" y="7.0048" width="9.5933" height=".87212" rx=".26351" ry=".25357" fill="#96E8BC"/>
    <rect x=".90563" y="8.749" width="6.5118" height=".87212" rx=".26351" ry=".25357" fill="#7DD181"/>
    <rect x=".90563" y="10.493" width="12.21" height=".87212" rx=".26351" ry=".25357" fill="#96E8BC"/>
    <rect x=".90563" y="12.237" width="9.5933" height=".87212" rx=".26351" ry=".25357" fill="#C9FFE2"/>
    <rect x=".90563" y="13.982" width="9.5933" height=".87212" rx=".26351" ry=".25357" fill="#96E8BC"/>
   </g>
   <g fill="#f3c178" stroke-width="1.7442">
    <rect x=".90563" y="7.0048" width="3.4885" height=".87212" rx=".26351" ry=".25357"/>
    <rect x=".90563" y="8.749" width="3.4885" height=".87212" rx=".26351" ry=".25357"/>
    <rect x=".90563" y="10.493" width="3.4885" height=".87212" rx=".26351" ry=".25357"/>
    <rect x=".90563" y="12.237" width="3.4885" height=".87212" rx=".26351" ry=".25357"/>
    <rect x=".90563" y="13.982" width="3.4885" height=".87212" rx=".26351" ry=".25357"/>
   </g>
  </g>
 </g>
</svg>
